<svg xmlns="http://www.w3.org/2000/svg" viewBox="0 0 903.57 911.26"><defs><style>.cls-1{fill:#e4b22b;}.cls-2{fill:#c70c83;}.cls-3{fill:#4f6cd4;}.cls-4{fill:#cb0784;}.cls-5{fill:#506ed8;}.cls-6{fill:#506dd8;}</style></defs><title>Asset 3</title><g id="Layer_2" data-name="Layer 2"><g id="PRINT_1" data-name="PRINT 1"><path class="cls-1" d="M699.08,77.12c-5-4.81-10.7-3.52-16.42-1.75a41.18,41.18,0,0,0-5.13,1.93q-26.58,12.17-53.12,24.37c-24.66,11.34-48.86,23.69-74.12,33.69-6.82,2.71-7.82,2.36-11.41-4.19s-7-12.9-10.48-19.33C512.16,82.21,497.06,51.91,477.88,24c-4.53-6.58-9.08-13.2-15-18.69-7.35-6.88-15.2-7-22.78-.42a57.51,57.51,0,0,0-7.84,8.37c-17,22.37-30.32,47-43.72,71.54-8.13,14.91-16.11,29.9-24.22,44.82-3.93,7.23-5.16,7.66-12.62,4.78-3.26-1.26-6.52-2.54-9.7-4q-56.52-26-113-51.93c-4.53-2.08-9-4.33-14.06-5-7.85-1.13-13.71,2.86-15.68,10.54-1.42,5.55-.47,10.86,1.23,16.19q34.31,107.77,68.57,215.56c3.62,11.39,6.43,13.4,18.38,13.5,54.64.47,109.3-.9,157.22,1.17H610.35c18.43,0,19.44-.73,25-18.21q28.24-89,56.49-178c4-12.69,8.18-25.35,11.92-38.12C705.79,89,704.56,82.42,699.08,77.12ZM619,196.06q-11.81,37.63-23.61,75.27c-2.32,7.4-3,7.87-11,7.93-88.46.63-176.91-1.5-265.37-1.19-8.63,0-9.09-.5-11.75-9q-17-54.31-34.05-108.62c-.48-1.52-1.94-3.39-.53-4.62s3.1.53,4.49,1.19c27,12.94,54.27,25.46,82.57,35.46,3.45,1.22,6.91,2.42,10.43,3.41,10.77,3,16,1,21.78-8.59,2.33-3.84,4.43-7.82,6.53-11.8,16.15-30.63,32.19-61.32,49.36-91.4.93-1.62,1.35-4.42,3.54-4.29,2,.13,2.59,2.81,3.52,4.51q25.15,46,50.23,92.07,3.36,6.14,7,12.1c5.58,9.1,9.41,10.68,19.52,7.59a497.53,497.53,0,0,0,55.23-20.44c12.8-5.64,25.39-11.73,38.11-17.55,1.88-.87,3.66-2.15,6.53-2.2C627.26,169.49,623.11,182.78,619,196.06Z"/><path class="cls-2" d="M316.47,809.27c-13.61,2.61-26.89,6.17-39.3,12.61C263.43,829,251.6,838.62,240.23,849c-23.17,21.07-48.12,39.49-77.43,51.36-26.69,10.81-54.08,14.16-82.22,7.52-39-9.19-62.31-34.57-73-72.36-10-35.22-9.28-70.71-2.4-106.36,5.14-26.64,8.93-53.55,15.61-79.87,18.91-74.38,44.4-146.19,84.08-212.35a261,261,0,0,1,29.23-40.43c19.44-21.71,44.43-33.42,72.45-39.45s55.71-3.89,83.18,2.73a242.56,242.56,0,0,0,56.45,6.37c19.32.06,38.64-.26,58-.23,46.47.09,92.95.36,139.42.39,26.52,0,53-1,78.82-7.83a9.34,9.34,0,0,1,2-.13c2.89,2.23.64,4.2-.51,6-7,10.7-14.12,21.32-21.26,31.93-5.34,7.92-10.26,16.15-16.69,23.31-2.45,1.27-5.1,1.39-7.79,1.39q-127.92,0-255.85-.11c-10.64,0-21.22-1.92-31.59-4.48-9.87-2.43-19.83-4.47-29.87-6-22.51-3.39-44.52-2.05-65.27,8.46-15.86,8-26.76,21-36.15,35.69a545,545,0,0,0-44.07,83.36c-9.77,23.36-18.4,47.15-26.13,71.27a753.23,753.23,0,0,0-26.4,110.67c-3.73,23.31-7.57,46.66-6.83,70.48a119.4,119.4,0,0,0,7.51,38.54c7,18.63,22,25.69,40.64,27,19.52,1.37,37.08-5.09,53.94-14,29.05-15.28,55-35,80.05-56a225.27,225.27,0,0,1,26.53-19.53,56.78,56.78,0,0,1,28.77-8.64c11.64-.34,23.28-1,34.92-.71a139.67,139.67,0,0,1,21.31,1.77c2.79,2.34.93,4.49-.39,6.51-6.33,9.68-12.92,19.2-19.49,28.73-2.25,3.26-4.5,6.54-6.7,9.84A12.88,12.88,0,0,1,316.47,809.27Z"/><path class="cls-3" d="M583.5,420.42c12.28-18.39,26.41-39.81,38.67-58.21.82-1.23,1.44-2.59,2.16-3.88,10.72-3.56,21.92-4.06,33-4.53,38.08-1.63,72.41,8.76,102.23,33,12.21,9.92,21,22.67,29.57,35.6,36.84,55.3,61.18,116.18,80.59,179.34,13.39,43.57,22.36,88,29.27,133,3.58,23.33,6.24,46.6,3.3,70.13-3.22,25.76-9.9,50.39-26.4,71.22-15.64,19.73-36.89,29.49-61.23,33.41-39,6.29-73.72-5.35-106.25-25.87-20.09-12.67-38-28.13-55.7-43.84-23.67-21-51.42-30.64-82.85-30.6q-113.22.13-226.44.15c-9,0-18,0-27-.07q14.44-21.37,28.87-42.75c1.38-2,2.69-4.16,4-6.24-.18-2.55,1.6-3,3.53-3.21a73.38,73.38,0,0,1,8-.18c80.29,0,160.59.14,240.89-.12,17.86,0,33.24,5.81,47.24,16.24,15,11.13,29,23.41,43.87,34.7,20.59,15.67,42.1,29.91,65.83,40.43a90,90,0,0,0,43.39,7.6c20-1.43,35.29-13.94,40.58-33.66a144.58,144.58,0,0,0,4.48-51.93,755.7,755.7,0,0,0-11-76.58A794.85,794.85,0,0,0,810.83,598c-12.15-36.4-26.22-72-44-106-9.9-18.91-21.12-37-34.53-53.71-12-14.9-27.72-23.51-46.37-27.25-16.78-3.37-33.41-2.48-50.13.43-13.46,2.34-26.48,6.82-40.15,8C592.14,419.76,587.32,420.9,583.5,420.42Z"/><path class="cls-4" d="M333.34,492.79c-10.52-18.05-27.4-26.48-47.23-28.91-24.7-3-49.59-1.23-74.39-1C201.53,463,197,469,197.83,480.12c1.74,22.65.2,45.3.64,70.49-.47,19.78-1,42.09-1.53,64.41a46.54,46.54,0,0,0,1.19,12.4c1.48,5.93,4.79,10.74,11.05,11.56a115.28,115.28,0,0,0,34.79-.27c5.75-1,8.86-5.07,9.47-10.81a33.2,33.2,0,0,0-.05-8c-1.21-8.79-.94-17.61-1.21-26.43-.13-4.36,1.29-5.8,5.68-5.77,10.31.07,20.62.47,30.91-1.13C331.22,580,355.06,530.06,333.34,492.79ZM286,540.65c-2.4,5.54-7,8.78-12.57,10.57-6.32,2-12.85,1.26-19.31,1.31-3,0-2.81-2.21-2.81-4.19,0-7.14,0-14.29,0-21.43h1V504c0-2.27.67-3.87,3.39-3.79,6,.16,12-.53,17.85,1.12,6.73,1.9,11.51,5.94,13.72,12.58A36.39,36.39,0,0,1,286,540.65Z"/><path class="cls-4" d="M707.29,495.39c-10.15-19.76-27.68-28.87-48.64-31.49-24.67-3.09-49.56-1.24-74.34-1-10,.09-14.56,5.84-13.88,16.72,1.45,23.14.35,46.27-.55,69.41q0,25.72,0,51.44c0,7.16-.45,14.33-.09,21.47.63,12.2,6.67,17.78,18.76,17.9,6.82.07,13.65.1,20.48,0,13.4-.25,18.35-5.82,17-19.21-.93-9.12-1.42-18.24-1.46-27.41,0-4.14,1.39-5.44,5.49-5.43,10.31,0,20.61.47,30.91-1.1C702.52,580.32,726.64,533,707.29,495.39ZM659,539.6c-3.37,8.54-10.63,12-19.28,12.8-3.79.36-7.65,0-11.47.23-3.46.21-4.69-1.07-4.58-4.58.22-7.15.06-14.3.06-21.46h.91c0-7.31.07-14.63,0-22-.06-3.47,1.46-4.68,4.83-4.5,5.63.29,11.31-.41,16.85,1.24,6.69,2,11.43,6.06,13.56,12.78A37.26,37.26,0,0,1,659,539.6Z"/><path class="cls-5" d="M510.13,500.21c0,15,0,30,0,45,0,7.14-1.71,8.86-8.88,8.9q-17.5.12-35,0c-7.48,0-8.95-1.56-9-9.27-.05-15.16,0-30.32,0-45.49,0-1.5,0-3-.11-4.49-.09-1.16-.23-2.42-1.71-2.71a2.83,2.83,0,0,0-2.9,1.56,37.43,37.43,0,0,0-2.17,3.93q-15.82,31.74-31.63,63.51c-3.18,6.39-2.81,7,4.2,7.05,5.84,0,11.67,0,17.5,0,4.25,0,6.61,2.28,6.64,6.45q.15,22,0,44c0,4.2-2.47,6.53-6.62,6.54q-35.25.09-70.49,0c-4.2,0-6.55-2.52-6.58-6.62-.1-16.67-.05-33.33,0-50,0-2.25,1.15-4.15,2.11-6.08,18.39-37,37.84-73.44,57-110,2.53-4.82,6-7,11.52-7,22.66.23,45.32.14,68,.23,6.37,0,8.32,2,8.35,8.44.06,15.32,0,30.65,0,46Z"/><path class="cls-5" d="M456.83,608.85c0-10.49-.05-21,0-31.47,0-7.38,2.07-9.47,9.55-9.5q31.22-.11,62.44,0c7.8,0,9.23,1.63,9.25,9.54,0,13,0,26,0,39,0,6.56-2.1,8.53-8.73,8.69-.34,0-.67,0-1,0-4.57.46-10.42-2.05-13.42,1.21s-.87,8.94-1,13.56c-.2,8.32-1.41,9.68-9.55,9.69-13,0-26,0-39,0-6.6,0-8.55-2-8.58-8.73C456.79,630.17,456.83,619.51,456.83,608.85Z"/><path class="cls-4" d="M629,706.8c2.18-8.07,4.13-14.72,5.76-21.44,1.74-7.2,2.42-7.88,9.6-8,15-.14,13.52-.4,14.63,13.19,1,11.77,1.88,23.55,3.08,35.3.45,4.37-1.12,6.31-5.39,6.29-1.67,0-3.34-.08-5,0-4,.27-5.69-1.73-5.92-5.6-.61-9.78-1.37-19.54-2.46-29.34a102.22,102.22,0,0,0-5.68,20.7c-.81,4.42-3.35,5.66-7.4,5.5-4.45-.16-9.3.88-10.68-5.4-1.45-6.65-2.57-13.39-6.28-19.76,0,3.14.08,6.29,0,9.43-.16,5.16-.43,10.31-.68,15.46-.39,8.37-6.07,11.87-14,8.61-2.34-1-3.14-2.88-2.89-5.25,1.55-14.72,3.1-29.44,4.75-44.15.36-3.17,2.11-4.86,5.65-5,14.81-.77,14.67-.82,18.59,13.66C626,695.77,626.07,700.85,629,706.8Z"/><path class="cls-4" d="M715.29,695.53a24,24,0,0,0-21.82-18.91c-11.47-1-20.43,3.73-24.87,13.64a35.7,35.7,0,0,0-2.79,19.06c1.26,10.48,5.74,19,16.47,22.26,10.24,3.12,19.94,1.91,27.39-6.68,5-5.79,6.63-12.92,6.86-20.5C716.13,701.44,716,698.42,715.29,695.53Zm-17.65,19.12a6.76,6.76,0,0,1-7.57,4.43,7.32,7.32,0,0,1-6.41-5.46,26.59,26.59,0,0,1-1.1-9.35,25,25,0,0,1,.92-8.38,7.24,7.24,0,0,1,6.4-5.44,6.76,6.76,0,0,1,7.63,4.32A25.54,25.54,0,0,1,697.64,714.65Z"/><path class="cls-4" d="M589.25,690.2c-4.22-8.74-11.47-13.12-21.06-13.62-9.77-.52-17.81,2.84-22.65,11.61-3.8,6.87-4.77,14.5-3.77,22.29,1.42,11,8.45,19.43,18,21.65,12,2.79,22-.75,28-10.17,3.38-5.35,4.29-11.47,4.5-17.69A31,31,0,0,0,589.25,690.2Zm-15.67,24.17a6.56,6.56,0,0,1-6.3,4.73c-3.38.21-5.65-1.33-7.11-4.34-1.65-3.39-1.79-7-1.88-10.67,0-3.49.23-7,2.07-10.09a7,7,0,0,1,7.1-3.57,6.42,6.42,0,0,1,6,4.49A28.69,28.69,0,0,1,573.58,714.37Z"/><path class="cls-4" d="M537.15,721.17c-3.76-1.21-4.95-4.74-7.21-7.31-1.58-1.79-1.16-3,.66-4.46,7-5.58,7.75-13.16,5-20.79s-9.55-10.76-17.42-11.08c-6.31-.25-12.64,0-19-.13-4.56-.09-6.18,2.12-6.09,6.46.16,6.82,0,13.64,0,20.46H493c0,7.16,0,14.31,0,21.46,0,4.23,2,6.55,6.4,6.44,1.49,0,3-.06,4.49,0,4.32.17,6-2.13,5.87-6.18-.06-2.83-.07-5.66,0-8.48.05-1.26-.08-2.82,1.68-3.22s2.86.67,3.59,2c1.72,3.23,3.31,6.52,5,9.76,3.07,5.88,9,8.36,14.57,6.16a6.74,6.74,0,0,0,4.5-6C539.33,724.31,539.58,722,537.15,721.17Zm-23.86-17.24c-6.24.2-3.39-4.61-4.27-7.35.71-3-1.59-7.61,4.38-7.57,4.93,0,7.86,2.76,7.85,7.48S518.36,703.77,513.29,703.93Z"/><path class="cls-6" d="M426.26,682.27c0,4.49-.07,9,0,13.47.06,2.67-.89,4-3.74,4-16.71-.17-13.39,1.91-14.12-13-.12-2.47,1.42-6.37-1.42-7-2.28-.54-2.7,3.62-3.75,5.73-2.45,4.9-4.45,10-6.81,15-1.53,3.2-.87,5,2.81,4.52,4.7-.57,5.6,1.71,5.5,5.81-.32,13.64,1.58,11.47-11.65,11.68-3.82.06-7.65,0-11.47,0-3.49,0-4.56-1.71-5.15-5.18-1.93-11.39,4.42-20.09,8.87-29.4,3.22-6.74,6.89-13.27,10.23-19.95,1.33-2.66,3.14-4,6.22-4,6.65.11,13.31.06,20,0,3.18,0,4.53,1.38,4.49,4.51-.07,4.65,0,9.31,0,14Z"/><path class="cls-4" d="M331.71,724.72c-2-11.82-5.48-23.3-8.07-35-2.73-12.29-2.62-12.32-15.27-12.25-2.49,0-5-.07-7.49,0-3.22.12-5,1.69-5.83,5-3.16,12.58-6.16,25.23-10,37.61-4.29,13.84.87,12.24,10.31,12,2.72-.06,4.61-1.58,4.72-4.21.24-5.71,3.17-7,8.46-6.84,4.39.14,7.43.71,7.87,5.73a5.48,5.48,0,0,0,1,2.28c1.78,2.85,8.24,4.44,12.33,2.87C333.5,730.53,332.17,727.42,331.71,724.72Zm-24.42-14.43c-2.18.29-4.16-.1-3.45-3.17,1.34-5.76,2.69-11.52,4.2-18,2.64,6.37,3.35,12.49,4.21,18.5C312.83,711.69,309.23,710,307.29,710.29Z"/><path class="cls-4" d="M469,677.51c-6.15-.2-12.3,0-18.45-.1-4.53-.1-6.18,2-6,6.42.21,6.81.06,13.63.06,20.44h-.21v20.94c0,3.23.73,6.13,4.39,6.82,2.09.39,4.31.1,6.47.19,4.62.18,6.57-1.9,6.42-6.63-.26-8.61-.11-8.61,8.39-9.5,11.95-1.25,18.62-9,18.25-21.24C488,684.74,480.51,677.89,469,677.51Zm2.73,23.26c-1.44,4-4.86,4.59-8.55,4.54-1.8,0-2.19-1.21-2.22-2.66,0-1.67,0-3.33,0-5h.24a29,29,0,0,1,0-3.49c.21-1.72-.54-4,1.7-4.79a6.84,6.84,0,0,1,6.67.93C473.09,693.1,473.15,696.91,471.77,700.77Z"/><path class="cls-4" d="M221.89,677.53c-6.3-.23-12.62,0-18.94-.11-4.47,0-6.2,2.11-6.09,6.49.18,6.81,0,13.62,0,20.43h-.08q0,10.73,0,21.44c0,4.32,2.2,6.41,6.47,6.42,1.66,0,3.32-.05,5,0,4.33.16,5.87-2,5.73-6.17-.3-8.91-.2-8.91,8.93-10,11.67-1.36,18.48-9.24,18.12-21C240.74,685,233.19,677.94,221.89,677.53Zm.48,26.11c-2.24,1.68-5.12,2.6-7.45,1.3-3-1.68-.88-5.12-1.34-7a21,21,0,0,1,0-3.17c.38-2-1-4.8,1.88-5.55a7.7,7.7,0,0,1,8.15,2.34C226.3,694.62,225.64,701.19,222.37,703.64Z"/><path class="cls-4" d="M347.13,718.75c1.95-9.67-5.07-17-8.61-25.38-1.42-3.36-3.42-6.47-5-9.76-1.94-4-.77-5.88,3.71-6.17,9.74-.63,9.86-.57,13.53,8.55,1.06,2.62,2,5.3,3.06,7.92.35.86.61,2.07,1.84,2.09s1.52-1.15,1.88-2c1.41-3.55,3-7.07,4.1-10.71,1.34-4.32,3.95-6.33,8.5-5.85,1.48.15,3,0,4.49,0,5.78.15,7.17,2.59,4.3,7.54-4.43,7.63-8.74,15.31-13.34,22.83-2.29,3.76-1.66,7.7-1.61,11.65,0,2.33.17,4.66.33,7,.25,3.77-1.58,5.59-5.24,5.74-1.34.05-2.67.07-4,.05-6.64-.05-7.82-1.23-7.92-7.9C347.11,722.66,347.13,721,347.13,718.75Z"/><path class="cls-4" d="M245.76,704.36c0-6.66,0-13.32,0-20,0-5.95.84-6.87,7-7h.5c8.86-.08,9.83,1,9.59,10.12s-.19,18-.51,27c-.12,3.52,1.18,4.8,4.61,4.56s6.66-.2,10-.21c4.88,0,4.93,3.38,4.92,6.93,0,3.34.07,6.49-4.7,6.44-8.49-.1-17,0-25.47,0-4.59,0-6-2.87-6.06-6.86,0-7,0-14,0-21Z"/><path class="cls-6" d="M422.33,705h1.5c13.06,0,14.31,1.6,12.3,14.9-.43,2.85-2.16,3.07-4.19,3-3.39-.08-4.91,1.42-4.66,4.8s-1.32,4.72-4.73,4.69c-17.05-.13-14.41,1.44-14.41-13.67C408.14,703,405.77,705.27,422.33,705Z"/></g></g></svg>