<svg width="20" height="20" viewBox="0 0 20 20" fill="none" xmlns="http://www.w3.org/2000/svg">
<g id="check-circle-1">
<path id="Shape" d="M10 0C4.47715 0 0 4.47715 0 10C0 15.5228 4.47715 20 10 20C15.5228 20 20 15.5228 20 10C19.9936 4.47982 15.5202 0.00642897 10 0Z" fill="white" fill-opacity="0.32"/>
<path id="Path" d="M16.2969 6.62743L10.3276 13.1921C10.1852 13.3452 9.97295 13.4455 9.73845 13.4705C9.50395 13.4954 9.26689 13.443 9.08055 13.325L4.81791 10.5631C4.44176 10.3192 4.38085 9.87432 4.68187 9.56949C4.98289 9.26466 5.53184 9.2153 5.90799 9.45924L9.46251 11.7638L14.8928 5.79138C15.0709 5.57484 15.3814 5.45511 15.7011 5.47975C16.0207 5.50438 16.2978 5.66938 16.4224 5.90924C16.5469 6.1491 16.4987 6.42501 16.2969 6.62743Z" fill="white"/>
</g>
</svg>
