<svg xmlns:xlink="http://www.w3.org/1999/xlink" width="49" xmlns="http://www.w3.org/2000/svg" height="58" id="screenshot-78fd33e9-13db-802f-8002-b392535ba7e6" viewBox="0 0 49 58" style="-webkit-print-color-adjust: exact;" fill="none" version="1.1"><g id="shape-78fd33e9-13db-802f-8002-b392535ba7e6" rx="0" ry="0" style="fill: rgb(0, 0, 0);"><g id="shape-78fd33e9-13db-802f-8002-b392535ba7e7"><g class="fills" id="fills-78fd33e9-13db-802f-8002-b392535ba7e7"><path fill-rule="nonzero" rx="0" ry="0" d="M29.094,57.998L7.656,57.998C3.428,57.998,0.000,54.582,0.000,50.367L0.000,7.631C0.000,3.417,3.428,0.000,7.656,0.000L41.344,0.000C45.572,0.000,49.000,3.417,49.000,7.631L49.000,38.157C49.000,38.562,48.839,38.950,48.552,39.236L30.177,57.551C29.889,57.838,29.500,57.998,29.094,57.998ZZ" style="fill: rgb(46, 175, 240);"/></g></g><g id="shape-78fd33e9-13db-802f-8002-b392535ba7e8"><g class="fills" id="fills-78fd33e9-13db-802f-8002-b392535ba7e8"><path fill-rule="nonzero" rx="0" ry="0" d="M49.000,38.157C49.000,38.553,48.846,38.888,48.652,39.126L48.552,39.236L30.177,57.551C29.886,57.830,29.547,57.959,29.241,57.992L29.091,58.000L29.094,42.736C29.094,40.384,30.904,38.310,33.407,38.165L33.687,38.157ZM21.437,42.737C22.283,42.737,22.969,43.421,22.969,44.264C22.969,45.046,22.352,45.790,21.437,45.790L13.781,45.790C12.936,45.790,12.250,45.106,12.250,44.264C12.250,43.481,12.883,42.737,13.781,42.737ZM21.437,32.053C22.283,32.053,22.969,32.737,22.969,33.580C22.969,34.362,22.319,35.106,21.437,35.106L13.781,35.106C12.936,35.106,12.250,34.423,12.250,33.580C12.250,32.797,12.874,32.053,13.781,32.053ZM35.219,21.369C36.064,21.369,36.750,22.053,36.750,22.896C36.750,23.678,36.148,24.422,35.219,24.422L13.781,24.422C12.936,24.422,12.250,23.739,12.250,22.896C12.250,22.113,12.836,21.369,13.781,21.369ZM35.219,10.685C36.064,10.685,36.750,11.369,36.750,12.212C36.750,12.994,36.155,13.738,35.219,13.738L13.781,13.738C12.936,13.738,12.250,13.055,12.250,12.212C12.250,11.429,12.883,10.685,13.781,10.685Z" style="fill: rgb(165, 225, 255);"/></g></g></g></svg>