<svg xmlns:xlink="http://www.w3.org/1999/xlink" width="79" xmlns="http://www.w3.org/2000/svg" height="79" id="screenshot-d1be7b68-a422-805e-8002-b9fbccd75565" viewBox="0 0 79 79" style="-webkit-print-color-adjust: exact;" fill="none" version="1.1"><g id="shape-d1be7b68-a422-805e-8002-b9fbccd75565" version="1.1" xmlns:xlink="http://www.w3.org/1999/xlink" xml:space="preserve" rx="0" ry="0" style="fill: rgb(0, 0, 0);"><g id="shape-d1be7b68-a422-805e-8002-b9fbccd75567" rx="0" ry="0" style="fill: rgb(0, 0, 0);"><g id="shape-d1be7b68-a422-805e-8002-b9fbccd7556e"><g class="fills" id="fills-d1be7b68-a422-805e-8002-b9fbccd7556e"><path rx="0" ry="0" d="M66.011,24.317L54.455,18.596L54.455,4.888L66.011,4.888Z" style="fill: rgb(255, 100, 101);"/></g></g><g id="shape-d1be7b68-a422-805e-8002-b9fbccd7556f"><g class="fills" id="fills-d1be7b68-a422-805e-8002-b9fbccd7556f"><path rx="0" ry="0" d="M10.155,28.033L10.155,78.729L68.845,78.729L68.845,28.033L39.500,13.483Z" style="fill: rgb(255, 100, 101);"/></g></g></g><g id="shape-d1be7b68-a422-805e-8002-b9fbccd75568"><g class="fills" id="fills-d1be7b68-a422-805e-8002-b9fbccd75568"><path rx="0" ry="0" d="M39.500,27.111L39.500,27.111ZC35.363,27.111,32.009,30.465,32.009,34.602L32.009,42.093L46.991,42.093L46.991,34.602C46.991,30.465,43.637,27.111,39.500,27.111ZZ" style="fill: rgb(125, 210, 240);"/></g></g><g id="shape-d1be7b68-a422-805e-8002-b9fbccd75569"><g class="fills" id="fills-d1be7b68-a422-805e-8002-b9fbccd75569"><rect rx="0" ry="0" x="32.00826953124488" y="50.428693359397585" transform="matrix(1.000000, 0.000000, 0.000000, 1.000000, 0.000000, 0.000000)" width="14.981917968747439" height="28.298972656280966" style="fill: rgb(255, 215, 130);"/></g></g><g id="shape-d1be7b68-a422-805e-8002-b9fbccd7556a"><g class="fills" id="fills-d1be7b68-a422-805e-8002-b9fbccd7556a"><path rx="0" ry="0" d="M10.155,28.033L10.155,39.962L39.500,24.616L68.845,39.962L68.845,28.033L39.500,13.483Z" style="opacity: 0.1;"/></g></g><g id="shape-d1be7b68-a422-805e-8002-b9fbccd7556b"><g class="fills" id="fills-d1be7b68-a422-805e-8002-b9fbccd7556b"><path rx="0" ry="0" d="M74.581,36.506L39.500,18.159L4.419,36.506L0.000,28.056L39.500,7.399L79.000,28.056Z" style="fill: rgb(255, 215, 130);"/></g></g><g id="shape-d1be7b68-a422-805e-8002-b9fbccd7556c"><g class="fills" id="fills-d1be7b68-a422-805e-8002-b9fbccd7556c"><rect rx="0" ry="0" x="54.454453124984866" y="4.887662109395023" transform="matrix(1.000000, 0.000000, 0.000000, 1.000000, 0.000000, 0.000000)" width="11.556835937488358" height="9.052906249969965" style="opacity: 0.1;"/></g></g><g id="shape-d1be7b68-a422-805e-8002-b9fbccd7556d"><g class="fills" id="fills-d1be7b68-a422-805e-8002-b9fbccd7556d"><rect rx="0" ry="0" x="51.62063671875512" y="0.2712539062340511" transform="matrix(1.000000, 0.000000, 0.000000, 1.000000, 0.000000, 0.000000)" width="17.22462304685905" height="7.948449218820315" style="fill: rgb(255, 215, 130);"/></g></g></g></svg>