<svg xmlns:xlink="http://www.w3.org/1999/xlink" width="50" xmlns="http://www.w3.org/2000/svg" height="30" id="screenshot-d1be7b68-a422-805e-8002-b9faf795f3b5" viewBox="0 0 50 30" style="-webkit-print-color-adjust: exact;" fill="none" version="1.1"><g id="shape-d1be7b68-a422-805e-8002-b9faf795f3b5" rx="0" ry="0"><g id="shape-d1be7b68-a422-805e-8002-b9faf795f3b6"><g class="fills" id="fills-d1be7b68-a422-805e-8002-b9faf795f3b6"><path rx="0" ry="0" d="M49.955,20.033C49.713,16.055,48.475,10.824,46.279,4.486C46.232,4.353,46.157,4.230,46.060,4.126L42.436,0.325C42.239,0.118,41.960,0.000,41.668,0.000L37.501,0.000C37.340,0.000,37.181,0.037,37.036,0.105L35.173,0.998L14.829,0.998L12.964,0.105C12.821,0.037,12.661,0.000,12.499,0.000L8.333,0.000C8.040,0.000,7.761,0.118,7.564,0.325L3.942,4.126C3.843,4.230,3.768,4.353,3.722,4.486C1.525,10.824,0.287,16.055,0.045,20.033C-0.166,23.479,0.368,26.080,1.633,27.762C2.733,29.227,4.377,30.000,6.388,30.000C7.850,30.000,9.176,29.361,10.331,28.099C11.168,27.182,11.919,25.928,12.560,24.368C13.262,22.664,13.680,20.977,13.887,20.001L36.113,20.001C36.320,20.977,36.738,22.664,37.440,24.368C38.081,25.928,38.832,27.182,39.669,28.099C40.824,29.361,42.152,30.000,43.612,30.000C45.623,30.000,47.268,29.227,48.368,27.762C49.632,26.080,50.166,23.479,49.955,20.033ZZ" style="fill: rgb(237, 85, 100);"/></g></g><g id="shape-d1be7b68-a422-805e-8002-b9faf795f3b7"><g class="fills" id="fills-d1be7b68-a422-805e-8002-b9faf795f3b7"><path rx="0" ry="0" d="M25.736,15.293C26.143,15.684,26.143,16.317,25.736,16.708C25.330,17.098,24.669,17.098,24.263,16.708C23.856,16.317,23.856,15.684,24.263,15.293C24.669,14.903,25.330,14.903,25.736,15.293ZZ" style="fill: rgb(218, 68, 83);"/></g></g><g id="shape-d1be7b68-a422-805e-8002-b9faf795f3b8" rx="0" ry="0" style="fill: rgb(0, 0, 0);"><g id="shape-d1be7b68-a422-805e-8002-b9faf795f3c1"><g class="fills" id="fills-d1be7b68-a422-805e-8002-b9faf795f3c1"><path rx="0" ry="0" d="M40.321,7.707C39.914,8.098,39.254,8.098,38.849,7.707C38.441,7.317,38.441,6.684,38.849,6.293C39.254,5.902,39.914,5.902,40.321,6.293C40.728,6.684,40.728,7.317,40.321,7.707ZZ" style="fill: rgb(230, 233, 237);"/></g></g><g id="shape-d1be7b68-a422-805e-8002-b9faf795f3c2"><g class="fills" id="fills-d1be7b68-a422-805e-8002-b9faf795f3c2"><path rx="0" ry="0" d="M40.321,11.708C39.914,12.098,39.254,12.098,38.849,11.708C38.441,11.317,38.441,10.684,38.849,10.293C39.254,9.903,39.914,9.903,40.321,10.293C40.728,10.684,40.728,11.317,40.321,11.708ZZ" style="fill: rgb(230, 233, 237);"/></g></g><g id="shape-d1be7b68-a422-805e-8002-b9faf795f3c3"><g class="fills" id="fills-d1be7b68-a422-805e-8002-b9faf795f3c3"><path rx="0" ry="0" d="M42.404,9.707C41.998,10.098,41.339,10.098,40.931,9.707C40.524,9.317,40.524,8.684,40.931,8.293C41.339,7.903,41.998,7.903,42.404,8.293C42.811,8.683,42.811,9.317,42.404,9.707ZZ" style="fill: rgb(230, 233, 237);"/></g></g><g id="shape-d1be7b68-a422-805e-8002-b9faf795f3c4"><g class="fills" id="fills-d1be7b68-a422-805e-8002-b9faf795f3c4"><path rx="0" ry="0" d="M38.238,9.707C37.831,10.098,37.172,10.098,36.764,9.707C36.358,9.317,36.358,8.684,36.764,8.293C37.172,7.903,37.831,7.903,38.238,8.293C38.644,8.683,38.644,9.317,38.238,9.707ZZ" style="fill: rgb(230, 233, 237);"/></g></g></g><g id="shape-d1be7b68-a422-805e-8002-b9faf795f3b9"><g class="fills" id="fills-d1be7b68-a422-805e-8002-b9faf795f3b9"><path rx="0" ry="0" d="M21.875,17.001C21.875,19.210,20.009,21.000,17.708,21.000C15.407,21.000,13.541,19.210,13.541,17.001C13.541,14.791,15.407,13.000,17.708,13.000C20.009,13.000,21.875,14.791,21.875,17.001ZZ" style="fill: rgb(101, 109, 120);"/></g></g><g id="shape-d1be7b68-a422-805e-8002-b9faf795f3ba"><g class="fills" id="fills-d1be7b68-a422-805e-8002-b9faf795f3ba"><path rx="0" ry="0" d="M17.708,12.000C14.837,12.000,12.499,14.243,12.499,17.001C12.499,19.758,14.837,22.001,17.708,22.001C20.580,22.001,22.916,19.758,22.916,17.001C22.916,14.243,20.580,12.000,17.708,12.000ZZM17.708,20.001C15.985,20.001,14.583,18.654,14.583,17.001C14.583,15.346,15.985,14.001,17.708,14.001C19.431,14.001,20.833,15.346,20.833,17.001C20.833,18.654,19.431,20.001,17.708,20.001ZZ" style="fill: rgb(67, 74, 84);"/></g></g><g id="shape-d1be7b68-a422-805e-8002-b9faf795f3bb"><g class="fills" id="fills-d1be7b68-a422-805e-8002-b9faf795f3bb"><path rx="0" ry="0" d="M36.459,17.001C36.459,19.210,34.594,21.000,32.292,21.000C29.991,21.000,28.126,19.210,28.126,17.001C28.126,14.791,29.991,13.000,32.292,13.000C34.594,13.000,36.459,14.791,36.459,17.001ZZ" style="fill: rgb(101, 109, 120);"/></g></g><g id="shape-d1be7b68-a422-805e-8002-b9faf795f3bc"><g class="fills" id="fills-d1be7b68-a422-805e-8002-b9faf795f3bc"><path rx="0" ry="0" d="M32.292,12.000C29.420,12.000,27.084,14.243,27.084,17.001C27.084,19.758,29.420,22.001,32.292,22.001C35.165,22.001,37.501,19.758,37.501,17.001C37.501,14.243,35.165,12.000,32.292,12.000ZZM32.292,20.001C30.569,20.001,29.167,18.654,29.167,17.001C29.167,15.346,30.569,14.001,32.292,14.001C34.016,14.001,35.418,15.346,35.418,17.001C35.418,18.654,34.016,20.001,32.292,20.001ZZ" style="fill: rgb(67, 74, 84);"/></g></g><g id="shape-d1be7b68-a422-805e-8002-b9faf795f3bd"><g class="fills" id="fills-d1be7b68-a422-805e-8002-b9faf795f3bd"><path rx="0" ry="0" d="M10.416,12.000C9.841,12.000,9.374,11.553,9.374,11.000L9.374,7.000C9.374,6.448,9.841,6.001,10.416,6.001C10.991,6.001,11.458,6.448,11.458,7.000L11.458,11.000C11.458,11.553,10.991,12.000,10.416,12.000ZZ" style="fill: rgb(245, 247, 250);"/></g></g><g id="shape-d1be7b68-a422-805e-8002-b9faf795f3be"><g class="fills" id="fills-d1be7b68-a422-805e-8002-b9faf795f3be"><path rx="0" ry="0" d="M12.499,10.000L8.333,10.000C7.758,10.000,7.291,9.553,7.291,9.001C7.291,8.448,7.758,8.000,8.333,8.000L12.499,8.000C13.074,8.000,13.541,8.448,13.541,9.001C13.541,9.553,13.074,10.000,12.499,10.000ZZ" style="fill: rgb(230, 233, 237);"/></g></g><g id="shape-d1be7b68-a422-805e-8002-b9faf795f3bf"><g class="fills" id="fills-d1be7b68-a422-805e-8002-b9faf795f3bf"><rect rx="0" ry="0" x="17.707797361341363" y="0.9983531095422222" transform="matrix(1.000000, 0.000000, 0.000000, 1.000000, 0.000000, 0.000000)" width="14.583424251668475" height="4.001850017357356" style="fill: rgb(255, 206, 84);"/></g></g><g id="shape-d1be7b68-a422-805e-8002-b9faf795f3c0" rx="0" ry="0" style="fill: rgb(0, 0, 0);"><g id="shape-d1be7b68-a422-805e-8002-b9faf795f3c5"><g class="fills" id="fills-d1be7b68-a422-805e-8002-b9faf795f3c5"><path rx="0" ry="0" d="M48.368,27.762C49.240,26.603,49.763,25.008,49.937,23.001C49.934,23.001,44.104,27.084,38.485,26.402C38.485,26.402,38.490,26.441,38.502,26.506C38.868,27.116,39.259,27.648,39.669,28.099C40.824,29.361,42.152,30.000,43.612,30.000C45.623,30.000,47.268,29.227,48.368,27.762ZZ" style="fill: rgb(67, 74, 84);"/></g></g><g id="shape-d1be7b68-a422-805e-8002-b9faf795f3c6"><g class="fills" id="fills-d1be7b68-a422-805e-8002-b9faf795f3c6"><path rx="0" ry="0" d="M1.633,27.762C0.762,26.603,0.237,25.008,0.065,23.001C0.065,23.001,5.896,27.084,11.516,26.402C11.516,26.402,11.510,26.441,11.499,26.506C11.132,27.116,10.743,27.648,10.331,28.099C9.176,29.361,7.850,30.000,6.388,30.000C4.377,30.000,2.733,29.227,1.633,27.762ZZ" style="fill: rgb(67, 74, 84);"/></g></g><g id="shape-d1be7b68-a422-805e-8002-b9faf795f3c7"><g class="fills" id="fills-d1be7b68-a422-805e-8002-b9faf795f3c7"><path rx="0" ry="0" d="M6.922,0.998L14.829,0.998L12.964,0.105C12.821,0.037,12.661,0.000,12.499,0.000L8.333,0.000C8.040,0.000,7.761,0.118,7.564,0.325L6.922,0.998ZZ" style="fill: rgb(67, 74, 84);"/></g></g><g id="shape-d1be7b68-a422-805e-8002-b9faf795f3c8"><g class="fills" id="fills-d1be7b68-a422-805e-8002-b9faf795f3c8"><path rx="0" ry="0" d="M43.080,0.998L35.174,0.998L37.037,0.105C37.182,0.037,37.341,0.000,37.503,0.000L41.670,0.000C41.961,0.000,42.241,0.118,42.437,0.325L43.080,0.998ZZ" style="fill: rgb(67, 74, 84);"/></g></g></g></g></svg>