<svg xmlns:xlink="http://www.w3.org/1999/xlink" width="53" xmlns="http://www.w3.org/2000/svg" height="53" id="screenshot-d1be7b68-a422-805e-8002-b9fba7b76ea5" viewBox="0 0 53 53" style="-webkit-print-color-adjust: exact;" fill="none" version="1.1"><g id="shape-d1be7b68-a422-805e-8002-b9fba7b76ea5" rx="0" ry="0"><g id="shape-d1be7b68-a422-805e-8002-b9fba7b76ea6"><g class="fills" id="fills-d1be7b68-a422-805e-8002-b9fba7b76ea6"><ellipse rx="2.541095890406723" ry="2.612676056334749" cx="43.1986301369725" cy="32.47183098590904" transform="matrix(1.000000, 0.000000, 0.000000, 1.000000, 0.000000, 0.000000)" style="fill: rgb(255, 172, 51);"/></g></g><g id="shape-d1be7b68-a422-805e-8002-b9fba7b76ea7"><g class="fills" id="fills-d1be7b68-a422-805e-8002-b9fba7b76ea7"><ellipse rx="1.4520547945103317" ry="1.4929577464718022" cx="43.56164383561918" cy="31.35211267604609" transform="matrix(1.000000, 0.000000, 0.000000, 1.000000, 0.000000, 0.000000)" style="fill: rgb(255, 204, 77);"/></g></g><g id="shape-d1be7b68-a422-805e-8002-b9fba7b76ea8"><g class="fills" id="fills-d1be7b68-a422-805e-8002-b9fba7b76ea8"><path rx="0" ry="0" d="M34.849,41.803L42.110,34.338L8.712,0.000L1.452,0.000L1.452,7.465Z" style="fill: rgb(204, 214, 221);"/></g></g><g id="shape-d1be7b68-a422-805e-8002-b9fba7b76ea9"><g class="fills" id="fills-d1be7b68-a422-805e-8002-b9fba7b76ea9"><path rx="0" ry="0" d="M1.452,0.000L1.452,7.465L34.849,41.803L38.479,38.070Z" style="fill: rgb(154, 170, 180);"/></g></g><g id="shape-d1be7b68-a422-805e-8002-b9fba7b76eaa"><g class="fills" id="fills-d1be7b68-a422-805e-8002-b9fba7b76eaa"><path rx="0" ry="0" d="M49.149,48.125C49.561,47.701,49.814,47.191,49.920,46.680L42.308,37.431L41.291,36.383C40.472,35.541,39.011,35.677,38.026,36.689L37.135,37.603C36.152,38.614,36.020,40.116,36.839,40.958L37.915,42.064L46.845,49.835C47.346,49.727,47.844,49.466,48.259,49.040L49.149,48.125ZZ" style="fill: rgb(217, 158, 130);"/></g></g><g id="shape-d1be7b68-a422-805e-8002-b9fba7b76eab"><g class="fills" id="fills-d1be7b68-a422-805e-8002-b9fba7b76eab"><path rx="0" ry="0" d="M49.149,47.908C49.562,47.484,49.814,46.973,49.920,46.462L47.972,44.095L46.901,49.595C47.382,49.480,47.861,49.232,48.259,48.821L49.149,47.908ZZM44.343,39.687L43.053,46.318L44.883,47.909L46.074,41.788ZM42.309,37.213L41.291,36.165C41.152,36.028,40.992,35.915,40.817,35.831L39.397,43.135L41.227,44.726L42.616,37.585L42.309,37.213ZZM38.822,35.888C38.527,36.036,38.258,36.233,38.026,36.473L37.135,37.385C36.785,37.741,36.529,38.183,36.393,38.669C36.187,39.431,36.326,40.214,36.839,40.740L37.704,41.630L38.822,35.888ZC38.822,35.886,38.822,35.886,38.822,35.888ZZ" style="fill: rgb(191, 105, 82);"/></g></g><g id="shape-d1be7b68-a422-805e-8002-b9fba7b76eac"><g class="fills" id="fills-d1be7b68-a422-805e-8002-b9fba7b76eac"><ellipse rx="3.9931506849352445" ry="4.105633802817465" cx="49.006849315064756" cy="48.894366197182535" transform="matrix(1.000000, 0.000000, 0.000000, 1.000000, 0.000000, 0.000000)" style="fill: rgb(138, 70, 51);"/></g></g><g id="shape-d1be7b68-a422-805e-8002-b9fba7b76ead"><g class="fills" id="fills-d1be7b68-a422-805e-8002-b9fba7b76ead"><path rx="0" ry="0" d="M43.354,31.805C43.636,32.094,43.794,32.487,43.794,32.896C43.794,33.305,43.636,33.698,43.354,33.987L34.508,43.082C34.129,43.472,33.576,43.625,33.058,43.482C32.540,43.339,32.135,42.923,31.996,42.391C31.858,41.858,32.006,41.290,32.385,40.900L41.231,31.805C41.512,31.515,41.894,31.352,42.292,31.352C42.690,31.352,43.072,31.515,43.354,31.805ZZ" style="fill: rgb(255, 172, 51);"/></g></g><g id="shape-d1be7b68-a422-805e-8002-b9fba7b76eae"><g class="fills" id="fills-d1be7b68-a422-805e-8002-b9fba7b76eae"><ellipse rx="2.541095890410361" ry="2.612676056334749" cx="33.03424657533469" cy="42.92253521126986" transform="matrix(1.000000, 0.000000, 0.000000, 1.000000, 0.000000, 0.000000)" style="fill: rgb(255, 172, 51);"/></g></g><g id="shape-d1be7b68-a422-805e-8002-b9fba7b76eaf"><g class="fills" id="fills-d1be7b68-a422-805e-8002-b9fba7b76eaf"><ellipse rx="1.4520547945212456" ry="1.4929577464827162" cx="31.945205479445576" cy="43.295774647882354" transform="matrix(1.000000, 0.000000, 0.000000, 1.000000, 0.000000, 0.000000)" style="fill: rgb(255, 204, 77);"/></g></g><g id="shape-d1be7b68-a422-805e-8002-b9fba7b76eb0"><g class="fills" id="fills-d1be7b68-a422-805e-8002-b9fba7b76eb0"><path rx="0" ry="0" d="M50.498,42.136C50.706,42.350,50.823,42.639,50.823,42.941C50.823,43.243,50.706,43.532,50.498,43.746L45.451,48.934C45.019,49.378,44.318,49.378,43.886,48.934C43.454,48.489,43.454,47.769,43.886,47.324L48.933,42.136C49.141,41.923,49.422,41.803,49.716,41.803C50.009,41.803,50.291,41.923,50.498,42.136ZZ" style="fill: rgb(255, 172, 51);"/></g></g><g id="shape-d1be7b68-a422-805e-8002-b9fba7b76eb1"><g class="fills" id="fills-d1be7b68-a422-805e-8002-b9fba7b76eb1"><path rx="0" ry="0" d="M17.425,41.803L10.164,34.338L43.562,0.000L50.822,0.000L50.822,7.465Z" style="fill: rgb(204, 214, 221);"/></g></g><g id="shape-d1be7b68-a422-805e-8002-b9fba7b76eb2"><g class="fills" id="fills-d1be7b68-a422-805e-8002-b9fba7b76eb2"><path rx="0" ry="0" d="M50.822,0.000L50.822,7.465L17.425,41.803L13.795,38.070L50.822,0.000Z" style="fill: rgb(154, 170, 180);"/></g></g><g id="shape-d1be7b68-a422-805e-8002-b9fba7b76eb3"><g class="fills" id="fills-d1be7b68-a422-805e-8002-b9fba7b76eb3"><path rx="0" ry="0" d="M3.675,48.125C3.288,47.730,3.020,47.228,2.904,46.680L10.516,37.431L11.534,36.383C12.353,35.541,13.813,35.677,14.798,36.689L15.688,37.603C16.671,38.614,16.803,40.116,15.984,40.958L14.908,42.064L5.978,49.835C5.442,49.717,4.950,49.441,4.564,49.040L3.675,48.125ZZ" style="fill: rgb(217, 158, 130);"/></g></g><g id="shape-d1be7b68-a422-805e-8002-b9fba7b76eb4"><g class="fills" id="fills-d1be7b68-a422-805e-8002-b9fba7b76eb4"><path rx="0" ry="0" d="M3.675,47.908C3.288,47.512,3.020,47.010,2.904,46.462L4.853,44.095L5.923,49.595C5.409,49.473,4.938,49.205,4.565,48.821L3.675,47.908ZZM8.481,39.687L9.771,46.318L7.941,47.909L6.751,41.788ZM10.516,37.213L11.534,36.165C11.672,36.028,11.832,35.915,12.007,35.831L13.427,43.135L11.598,44.726L10.208,37.585L10.516,37.213ZZM14.002,35.888C14.285,36.030,14.557,36.224,14.798,36.473L15.688,37.387C16.057,37.766,16.305,38.214,16.430,38.671C16.636,39.432,16.497,40.216,15.984,40.741L15.119,41.631L14.002,35.888ZC14.002,35.886,14.002,35.886,14.002,35.888ZZ" style="fill: rgb(191, 105, 82);"/></g></g><g id="shape-d1be7b68-a422-805e-8002-b9fba7b76eb5"><g class="fills" id="fills-d1be7b68-a422-805e-8002-b9fba7b76eb5"><ellipse rx="3.9931506849243306" ry="4.105633802817465" cx="3.9931506849243306" cy="48.894366197182535" transform="matrix(1.000000, 0.000000, 0.000000, 1.000000, 0.000000, 0.000000)" style="fill: rgb(138, 70, 51);"/></g></g><g id="shape-d1be7b68-a422-805e-8002-b9fba7b76eb6"><g class="fills" id="fills-d1be7b68-a422-805e-8002-b9fba7b76eb6"><path rx="0" ry="0" d="M9.152,31.805C8.871,32.094,8.712,32.487,8.712,32.896C8.712,33.305,8.871,33.698,9.152,33.987L17.998,43.082C18.378,43.472,18.930,43.625,19.448,43.482C19.966,43.339,20.371,42.923,20.510,42.391C20.649,41.858,20.501,41.290,20.121,40.900L11.275,31.805C10.994,31.515,10.612,31.352,10.214,31.352C9.816,31.352,9.434,31.515,9.152,31.805ZZ" style="fill: rgb(255, 172, 51);"/></g></g><g id="shape-d1be7b68-a422-805e-8002-b9fba7b76eb7"><g class="fills" id="fills-d1be7b68-a422-805e-8002-b9fba7b76eb7"><ellipse rx="2.541095890410361" ry="2.612676056334749" cx="21.417808219172002" cy="42.92253521126986" transform="matrix(1.000000, 0.000000, 0.000000, 1.000000, 0.000000, 0.000000)" style="fill: rgb(255, 172, 51);"/></g></g><g id="shape-d1be7b68-a422-805e-8002-b9fba7b76eb8"><g class="fills" id="fills-d1be7b68-a422-805e-8002-b9fba7b76eb8"><ellipse rx="2.541095890421275" ry="2.612676056334749" cx="9.801369863020227" cy="32.47183098590904" transform="matrix(1.000000, 0.000000, 0.000000, 1.000000, 0.000000, 0.000000)" style="fill: rgb(255, 172, 51);"/></g></g><g id="shape-d1be7b68-a422-805e-8002-b9fba7b76eb9"><g class="fills" id="fills-d1be7b68-a422-805e-8002-b9fba7b76eb9"><ellipse rx="1.4520547945212456" ry="1.4929577464827162" cx="20.328767123282887" cy="43.295774647882354" transform="matrix(1.000000, 0.000000, 0.000000, 1.000000, 0.000000, 0.000000)" style="fill: rgb(255, 204, 77);"/></g></g><g id="shape-d1be7b68-a422-805e-8002-b9fba7b76eba"><g class="fills" id="fills-d1be7b68-a422-805e-8002-b9fba7b76eba"><ellipse rx="1.4520547945212456" ry="1.4929577464718022" cx="10.164383561641444" cy="31.35211267604609" transform="matrix(1.000000, 0.000000, 0.000000, 1.000000, 0.000000, 0.000000)" style="fill: rgb(255, 204, 77);"/></g></g><g id="shape-d1be7b68-a422-805e-8002-b9fba7b76ebb"><g class="fills" id="fills-d1be7b68-a422-805e-8002-b9fba7b76ebb"><path rx="0" ry="0" d="M3.228,42.136C3.021,42.350,2.904,42.639,2.904,42.941C2.904,43.243,3.021,43.532,3.228,43.746L8.276,48.934C8.708,49.378,9.409,49.378,9.841,48.934C10.273,48.489,10.273,47.769,9.841,47.324L4.794,42.136C4.586,41.923,4.305,41.803,4.011,41.803C3.718,41.803,3.436,41.923,3.228,42.136ZZ" style="fill: rgb(255, 172, 51);"/></g></g></g></svg>