<svg xmlns:xlink="http://www.w3.org/1999/xlink" width="10" xmlns="http://www.w3.org/2000/svg" height="13" id="screenshot-41e09d4e-e892-80c8-8002-b3c408e1a73d" viewBox="0 0 10 13" style="-webkit-print-color-adjust: exact;" fill="none" version="1.1"><g id="shape-41e09d4e-e892-80c8-8002-b3c408e1a73d" rx="0" ry="0" style="fill: rgb(0, 0, 0);"><g id="shape-41e09d4e-e892-80c8-8002-b3c408e1a73e"><g class="fills" id="fills-41e09d4e-e892-80c8-8002-b3c408e1a73e"><path rx="0" ry="0" d="M1.669,4.875C1.669,4.329,1.669,3.815,1.669,3.301C1.670,1.421,3.164,-0.020,5.094,0.000C6.818,0.018,8.313,1.472,8.331,3.151C8.338,3.716,8.331,4.281,8.331,4.876C8.480,4.876,8.607,4.876,8.735,4.876C9.445,4.884,9.995,5.407,9.997,6.094C10.001,7.989,10.001,9.884,9.997,11.779C10.000,12.100,9.871,12.410,9.639,12.639C9.407,12.867,9.091,12.996,8.760,12.997C6.252,13.001,3.744,13.001,1.235,12.997C0.558,12.994,0.009,12.461,0.005,11.801C-0.002,9.889,-0.002,7.977,0.005,6.066C0.005,5.422,0.557,4.894,1.217,4.877C1.354,4.872,1.493,4.875,1.669,4.875ZZM7.196,4.868C7.196,4.212,7.243,3.577,7.185,2.951C7.087,1.894,6.117,1.088,5.014,1.077C3.912,1.067,2.920,1.885,2.816,2.950C2.755,3.570,2.790,4.199,2.784,4.824C2.784,4.836,2.805,4.849,2.822,4.868ZM4.856,7.050C4.543,7.058,4.198,7.259,4.004,7.659C3.816,8.049,3.813,8.477,4.139,8.766C4.445,9.038,4.451,9.332,4.440,9.668C4.434,9.854,4.435,10.040,4.440,10.226C4.451,10.595,4.669,10.823,5.003,10.822C5.337,10.821,5.553,10.595,5.561,10.223C5.568,9.918,5.570,9.614,5.561,9.309C5.557,9.148,5.593,9.033,5.734,8.921C6.090,8.627,6.212,8.143,6.035,7.723C5.867,7.311,5.464,7.047,4.856,7.050ZZ" style="fill: rgb(124, 129, 242); fill-opacity: 1;"/></g></g></g></svg>