<svg xmlns:xlink="http://www.w3.org/1999/xlink" width="14" xmlns="http://www.w3.org/2000/svg" height="10" id="screenshot-41e09d4e-e892-80c8-8002-b3c5bfa42110" viewBox="0 0 14 10" style="-webkit-print-color-adjust: exact;" fill="none" version="1.1"><g id="shape-41e09d4e-e892-80c8-8002-b3c5bfa42110" rx="0" ry="0" style="fill: rgb(0, 0, 0);"><g id="shape-41e09d4e-e892-80c8-8002-b3c5bfa444e1" rx="0" ry="0" style="fill: rgb(0, 0, 0);"><g id="shape-41e09d4e-e892-80c8-8002-b3c5bfa444e2" rx="0" ry="0" style="fill: rgb(0, 0, 0);"><g id="shape-41e09d4e-e892-80c8-8002-b3c5bfa4faad"><g class="fills" id="fills-41e09d4e-e892-80c8-8002-b3c5bfa4faad"><path rx="0" ry="0" d="M0.000,2.808C0.134,2.890,0.225,2.943,0.313,2.999C2.109,4.139,3.905,5.279,5.702,6.419C6.597,6.987,7.403,6.989,8.295,6.423C10.099,5.279,11.902,4.134,13.704,2.987C13.786,2.935,13.868,2.887,13.983,2.819C13.990,2.909,13.998,2.975,13.998,3.036C13.998,4.920,13.998,6.804,13.998,8.688C13.998,9.478,13.458,9.998,12.631,9.998C8.877,10.001,5.123,10.001,1.369,9.998C0.543,9.998,0.002,9.477,0.002,8.691C0.000,6.747,0.000,4.803,0.000,2.808ZZ" style="fill: rgb(124, 129, 242); fill-opacity: 1;"/></g></g><g id="shape-41e09d4e-e892-80c8-8002-b3c5bfa517f4"><g class="fills" id="fills-41e09d4e-e892-80c8-8002-b3c5bfa517f4"><path rx="0" ry="0" d="M6.998,0.003C8.857,0.003,10.715,0.003,12.574,0.007C12.774,0.003,12.972,0.032,13.162,0.092C13.651,0.261,13.932,0.613,13.991,1.100C14.050,1.588,13.827,1.974,13.396,2.247C11.758,3.286,10.121,4.326,8.485,5.366C8.236,5.525,7.987,5.687,7.734,5.841C7.249,6.136,6.750,6.146,6.272,5.841C4.368,4.639,2.467,3.432,0.569,2.220C0.077,1.907,-0.105,1.396,0.059,0.877C0.220,0.371,0.703,0.020,1.258,0.007C1.769,-0.006,2.279,0.003,2.788,0.003Z" style="fill: rgb(124, 129, 242); fill-opacity: 1;"/></g></g></g></g></g></svg>