<svg xmlns:xlink="http://www.w3.org/1999/xlink" width="8.5" xmlns="http://www.w3.org/2000/svg" height="15" id="screenshot-41e09d4e-e892-80c8-8002-b3c96466c4b9" viewBox="0 0 8.5 15" style="-webkit-print-color-adjust: exact;" fill="none" version="1.1"><g id="shape-41e09d4e-e892-80c8-8002-b3c96466c4b9" rx="0" ry="0" style="fill: rgb(0, 0, 0);"><g id="shape-41e09d4e-e892-80c8-8002-b3c9646725d4" rx="0" ry="0" style="fill: rgb(0, 0, 0);"><g id="shape-41e09d4e-e892-80c8-8002-b3c9646725d5" rx="0" ry="0" style="fill: rgb(0, 0, 0);"><g id="shape-41e09d4e-e892-80c8-8002-b3c96468285d"><g class="fills" id="fills-41e09d4e-e892-80c8-8002-b3c96468285d"><path rx="0" ry="0" d="M8.475,12.061L0.017,12.061L0.017,2.360L8.475,2.360ZM4.243,7.099C4.616,7.096,4.917,6.764,4.916,6.358C4.914,5.952,4.611,5.623,4.237,5.623C3.863,5.622,3.560,5.950,3.557,6.357C3.559,6.767,3.865,7.099,4.243,7.099ZZM4.243,8.966C4.620,8.966,4.928,8.639,4.938,8.230C4.941,7.815,4.635,7.477,4.254,7.473C3.873,7.469,3.561,7.802,3.558,8.217C3.562,8.626,3.866,8.958,4.243,8.966ZZM4.938,4.492C4.920,4.084,4.613,3.762,4.238,3.756C3.872,3.764,3.552,4.124,3.559,4.517C3.576,4.925,3.883,5.248,4.258,5.253C4.628,5.244,4.947,4.888,4.938,4.492ZZM3.033,4.500C3.027,4.091,2.722,3.761,2.345,3.756C1.972,3.769,1.677,4.103,1.680,4.509C1.682,4.915,1.981,5.244,2.354,5.253C2.732,5.245,3.033,4.910,3.033,4.500ZZM5.464,4.512C5.469,4.922,5.776,5.251,6.153,5.253C6.526,5.239,6.820,4.904,6.817,4.498C6.813,4.092,6.513,3.763,6.140,3.756C5.763,3.768,5.464,4.103,5.464,4.512ZZM6.139,7.099C6.391,7.119,6.633,6.985,6.766,6.751C6.898,6.517,6.901,6.223,6.772,5.986C6.643,5.750,6.405,5.611,6.152,5.625C5.971,5.622,5.796,5.697,5.666,5.835C5.536,5.973,5.463,6.161,5.463,6.359C5.459,6.555,5.528,6.746,5.656,6.885C5.784,7.025,5.958,7.102,6.139,7.099ZZM2.335,7.099C2.516,7.109,2.693,7.037,2.825,6.901C2.957,6.766,3.032,6.577,3.033,6.380C3.037,6.183,2.970,5.993,2.844,5.851C2.719,5.709,2.547,5.628,2.366,5.625C2.124,5.619,1.896,5.754,1.770,5.980C1.644,6.205,1.638,6.486,1.754,6.718C1.871,6.950,2.092,7.096,2.335,7.099ZZM3.035,8.215C3.036,8.018,2.963,7.829,2.833,7.691C2.703,7.553,2.527,7.479,2.346,7.485C2.070,7.489,1.824,7.673,1.722,7.951C1.620,8.229,1.682,8.547,1.880,8.756C2.077,8.964,2.370,9.024,2.623,8.905C2.876,8.787,3.039,8.515,3.035,8.215ZZM6.835,8.215C6.829,7.807,6.520,7.482,6.145,7.487C5.963,7.482,5.788,7.559,5.660,7.699C5.532,7.840,5.463,8.030,5.468,8.228C5.468,8.424,5.540,8.612,5.668,8.751C5.797,8.889,5.970,8.966,6.151,8.966C6.527,8.961,6.831,8.628,6.835,8.215ZZM4.258,9.331C4.008,9.321,3.772,9.460,3.642,9.693C3.513,9.926,3.510,10.218,3.635,10.454C3.759,10.691,3.992,10.835,4.243,10.831C4.605,10.837,4.936,10.484,4.941,10.089C4.934,9.679,4.635,9.346,4.258,9.331ZZ" style="fill: rgb(124, 129, 242); fill-opacity: 1;"/></g></g><g id="shape-41e09d4e-e892-80c8-8002-b3c96468946f"><g class="fills" id="fills-41e09d4e-e892-80c8-8002-b3c96468946f"><path rx="0" ry="0" d="M0.031,12.670L8.497,12.670L8.497,13.631C8.497,13.894,8.506,14.158,8.493,14.422C8.476,14.784,8.271,14.998,7.939,14.998C5.478,15.001,3.016,15.001,0.555,14.998C0.291,14.998,0.057,14.871,0.042,14.588C0.007,13.954,0.031,13.314,0.031,12.670ZZM4.222,14.293C4.491,14.293,4.761,14.299,5.030,14.293C5.255,14.287,5.410,14.170,5.432,13.913C5.451,13.684,5.288,13.517,5.029,13.512C4.508,13.503,3.987,13.507,3.466,13.512C3.241,13.512,3.084,13.624,3.065,13.886C3.048,14.111,3.220,14.286,3.467,14.296C3.715,14.307,3.970,14.293,4.222,14.293ZZ" style="fill: rgb(124, 129, 242); fill-opacity: 1;"/></g></g><g id="shape-41e09d4e-e892-80c8-8002-b3c96468fe90"><g class="fills" id="fills-41e09d4e-e892-80c8-8002-b3c96468fe90"><path rx="0" ry="0" d="M0.007,1.741C0.007,1.319,-0.012,0.911,0.013,0.505C0.031,0.191,0.247,0.000,0.544,0.000C3.013,0.000,5.481,0.000,7.950,0.000C8.247,0.000,8.462,0.190,8.482,0.504C8.508,0.909,8.489,1.317,8.489,1.741ZM5.320,1.155C5.339,0.880,5.212,0.668,5.001,0.652C4.496,0.613,3.989,0.615,3.485,0.656C3.277,0.673,3.156,0.888,3.182,1.155Z" style="fill: rgb(124, 129, 242); fill-opacity: 1;"/></g></g></g></g></g></svg>