<svg xmlns:xlink="http://www.w3.org/1999/xlink" width="14" xmlns="http://www.w3.org/2000/svg" height="11" id="screenshot-f2f03a7a-f0dd-8004-8002-b3dd8e27ea9c" viewBox="0 0 14 11" style="-webkit-print-color-adjust: exact;" fill="none" version="1.1"><g id="shape-f2f03a7a-f0dd-8004-8002-b3dd8e27ea9c" rx="0" ry="0" style="fill: rgb(0, 0, 0);"><g id="shape-f2f03a7a-f0dd-8004-8002-b3dd8e285654" rx="0" ry="0" style="fill: rgb(0, 0, 0);"><g id="shape-f2f03a7a-f0dd-8004-8002-b3dd8e288e25" rx="0" ry="0" style="fill: rgb(0, 0, 0);"><g id="shape-f2f03a7a-f0dd-8004-8002-b3dd8e2977d6"><g class="fills" id="fills-f2f03a7a-f0dd-8004-8002-b3dd8e2977d6"><path rx="0" ry="0" d="M2.228,5.464C3.097,6.362,3.903,7.194,4.707,8.026C5.020,8.350,5.019,8.440,4.707,8.767C4.521,8.960,4.337,9.156,4.147,9.346C3.940,9.552,3.807,9.560,3.609,9.357C2.452,8.166,1.298,6.972,0.149,5.775C-0.051,5.566,-0.049,5.427,0.153,5.216C1.297,4.028,2.443,2.842,3.591,1.658C3.804,1.438,3.933,1.442,4.149,1.658C4.365,1.873,4.564,2.082,4.767,2.298C4.996,2.540,4.996,2.672,4.760,2.917C4.008,3.699,3.255,4.479,2.500,5.257C2.414,5.333,2.323,5.402,2.228,5.464ZZ" style="fill: rgb(124, 129, 242); fill-opacity: 1;"/></g></g><g id="shape-f2f03a7a-f0dd-8004-8002-b3dd8e29adca"><g class="fills" id="fills-f2f03a7a-f0dd-8004-8002-b3dd8e29adca"><path rx="0" ry="0" d="M11.718,5.499C11.640,5.414,11.574,5.338,11.505,5.267C10.752,4.486,10.000,3.706,9.246,2.926C8.997,2.666,8.997,2.544,9.242,2.286C9.440,2.078,9.639,1.870,9.843,1.666C10.059,1.449,10.199,1.440,10.404,1.651C11.551,2.835,12.697,4.022,13.841,5.211C14.053,5.433,14.053,5.567,13.841,5.790C12.697,6.979,11.551,8.165,10.403,9.350C10.202,9.558,10.068,9.555,9.865,9.353C9.647,9.137,9.438,8.916,9.228,8.693C9.010,8.461,9.010,8.325,9.228,8.094C9.985,7.305,10.745,6.518,11.506,5.733C11.574,5.661,11.640,5.585,11.718,5.499ZZ" style="fill: rgb(124, 129, 242); fill-opacity: 1;"/></g></g><g id="shape-f2f03a7a-f0dd-8004-8002-b3dd8e2a13c2"><g class="fills" id="fills-f2f03a7a-f0dd-8004-8002-b3dd8e2a13c2"><path rx="0" ry="0" d="M9.080,0.442C9.047,0.579,9.031,0.662,9.008,0.743C8.072,4.022,7.136,7.300,6.200,10.578C6.073,11.020,5.994,11.064,5.578,10.939C4.864,10.725,4.864,10.725,5.076,9.974C5.975,6.813,6.875,3.651,7.775,0.489C7.926,-0.042,7.988,-0.077,8.513,0.086C8.626,0.121,8.752,0.136,8.849,0.199C8.946,0.262,9.017,0.372,9.080,0.442ZZ" style="fill: rgb(124, 129, 242); fill-opacity: 1;"/></g></g></g></g></g></svg>