<svg xmlns:xlink="http://www.w3.org/1999/xlink" width="68" xmlns="http://www.w3.org/2000/svg" height="68" id="screenshot-d1be7b68-a422-805e-8002-b9fbe720083a" viewBox="0 0 68 68" style="-webkit-print-color-adjust: exact;" fill="none" version="1.1"><g id="shape-d1be7b68-a422-805e-8002-b9fbe720083a" enable-background="new 0 0 512 512" height="512" width="512" rx="0" ry="0" style="fill: rgb(0, 0, 0);"><g id="shape-d1be7b68-a422-805e-8002-b9fbe7204026" rx="0" ry="0" style="fill: rgb(0, 0, 0);"><g id="shape-d1be7b68-a422-805e-8002-b9fbe7204027"><g class="fills" id="fills-d1be7b68-a422-805e-8002-b9fbe7204027"><path rx="0" ry="0" d="M33.718,0.000L7.912,0.000C3.542,0.000,0.000,3.542,0.000,7.912L0.000,28.705C0.000,33.074,3.542,36.616,7.912,36.616L9.280,36.616L9.280,41.354C9.280,42.549,10.681,43.194,11.588,42.417L18.368,36.616L33.718,36.616C38.087,36.616,41.629,33.074,41.629,28.705L41.629,7.912C41.629,3.542,38.087,0.000,33.718,0.000ZZ" style="fill: rgb(254, 118, 168);"/></g></g><g id="shape-d1be7b68-a422-805e-8002-b9fbe7204028"><g class="fills" id="fills-d1be7b68-a422-805e-8002-b9fbe7204028"><path rx="0" ry="0" d="M9.279,36.616L7.912,36.616C3.542,36.616,0.000,33.074,0.000,28.705L0.000,7.911C0.000,3.543,3.542,0.000,7.912,0.000L12.239,0.000C7.870,0.000,4.328,3.542,4.328,7.911L4.328,28.705C4.328,31.839,6.150,34.548,8.794,35.829C9.094,35.974,9.279,36.283,9.279,36.616ZZ" style="fill: rgb(254, 86, 148);"/></g></g><g id="shape-d1be7b68-a422-805e-8002-b9fbe7204029"><g class="fills" id="fills-d1be7b68-a422-805e-8002-b9fbe7204029"><path rx="0" ry="0" d="M34.282,25.244L60.088,25.244C64.458,25.244,68.000,28.786,68.000,33.156L68.000,53.949C68.000,58.318,64.458,61.860,60.088,61.860L58.720,61.860L58.720,66.598C58.720,67.793,57.319,68.438,56.412,67.661L49.632,61.860L34.282,61.860C29.913,61.860,26.371,58.318,26.371,53.949L26.371,33.156C26.371,28.786,29.913,25.244,34.282,25.244ZZ" style="fill: rgb(232, 237, 242);"/></g></g><g id="shape-d1be7b68-a422-805e-8002-b9fbe720402a"><g class="fills" id="fills-d1be7b68-a422-805e-8002-b9fbe720402a"><path rx="0" ry="0" d="M38.609,61.860L34.283,61.860C29.913,61.860,26.371,58.318,26.371,53.949L26.371,33.155C26.371,28.786,29.913,25.244,34.283,25.244L38.609,25.244C34.241,25.244,30.698,28.786,30.698,33.155L30.698,53.949C30.698,58.318,34.241,61.860,38.609,61.860ZZ" style="fill: rgb(217, 231, 236);"/></g></g><g id="shape-d1be7b68-a422-805e-8002-b9fbe720402b" rx="0" ry="0" style="fill: rgb(0, 0, 0);"><g id="shape-d1be7b68-a422-805e-8002-b9fbe720402d"><g class="fills" id="fills-d1be7b68-a422-805e-8002-b9fbe720402d"><path rx="0" ry="0" d="M20.815,23.110C19.681,23.110,18.762,22.191,18.762,21.057L18.762,20.371C18.762,18.270,20.040,16.422,22.018,15.665C23.416,15.129,24.283,13.762,24.176,12.263C24.060,10.653,22.765,9.319,21.163,9.162C19.346,8.984,17.727,10.249,17.477,12.043C17.455,12.198,17.444,12.357,17.444,12.515C17.444,13.649,16.525,14.568,15.392,14.568C14.258,14.568,13.339,13.649,13.339,12.515C13.339,12.168,13.364,11.818,13.411,11.475C13.967,7.493,17.548,4.682,21.564,5.077C25.131,5.428,28.013,8.391,28.270,11.969C28.508,15.286,26.585,18.311,23.485,19.498C23.110,19.642,22.867,19.985,22.867,20.371L22.867,21.057C22.867,22.191,21.948,23.110,20.815,23.110ZZ" style="fill: rgb(232, 237, 242);"/></g></g><g id="shape-d1be7b68-a422-805e-8002-b9fbe720402e"><g class="fills" id="fills-d1be7b68-a422-805e-8002-b9fbe720402e"><path rx="0" ry="0" d="M20.815,30.213C19.681,30.213,18.762,29.294,18.762,28.161L18.762,28.144C18.762,27.010,19.681,26.091,20.815,26.091C21.948,26.091,22.867,27.010,22.867,28.144L22.867,28.161C22.867,29.294,21.948,30.213,20.815,30.213ZZ" style="fill: rgb(232, 237, 242);"/></g></g></g><g id="shape-d1be7b68-a422-805e-8002-b9fbe720402c" rx="0" ry="0" style="fill: rgb(0, 0, 0);"><g id="shape-d1be7b68-a422-805e-8002-b9fbe720402f"><g class="fills" id="fills-d1be7b68-a422-805e-8002-b9fbe720402f"><path rx="0" ry="0" d="M45.133,33.473C45.133,32.340,46.052,31.421,47.185,31.421C48.319,31.421,49.238,32.340,49.238,33.473L49.238,45.243C49.238,46.376,48.319,47.295,47.185,47.295C46.052,47.295,45.133,46.376,45.133,45.243Z" style="fill: rgb(95, 153, 215);"/></g></g><g id="shape-d1be7b68-a422-805e-8002-b9fbe7204030"><g class="fills" id="fills-d1be7b68-a422-805e-8002-b9fbe7204030"><path rx="0" ry="0" d="M47.185,54.398C46.052,54.398,45.133,53.479,45.133,52.346L45.133,52.329C45.133,51.196,46.052,50.277,47.185,50.277C48.319,50.277,49.238,51.196,49.238,52.329L49.238,52.346C49.238,53.479,48.319,54.398,47.185,54.398ZZ" style="fill: rgb(95, 153, 215);"/></g></g></g></g></g></svg>